<?xml version="1.0" standalone="no"?><!DOCTYPE svg PUBLIC "-//W3C//DTD SVG 1.1//EN" "http://www.w3.org/Graphics/SVG/1.1/DTD/svg11.dtd"><svg t="1501220575862" class="icon" style="" viewBox="0 0 1025 1024" version="1.1" xmlns="http://www.w3.org/2000/svg" p-id="11469" xmlns:xlink="http://www.w3.org/1999/xlink" width="48.046875" height="48"><defs><style type="text/css"></style></defs><path d="M512.243693 1023.951261C229.949167 1023.951261 0.292432 794.245788 0.292432 511.951261 0.292432 229.705474 229.949167 0 512.243693 0 794.53822 0 1024.292432 229.705474 1024.292432 511.951261 1024.292432 794.245788 794.53822 1023.951261 512.243693 1023.951261ZM512.243693 36.99267C250.370681 36.99267 37.285102 250.078248 37.285102 511.951261 37.285102 773.873013 250.370681 986.909852 512.243693 986.909852 774.165445 986.909852 987.251023 773.873013 987.251023 511.951261 987.251023 250.078248 774.165445 36.99267 512.243693 36.99267ZM806.235507 541.097001 683.072822 541.097001C669.133555 541.097001 657.826178 529.740885 657.826178 515.704141L657.826178 507.759733C657.826178 493.771728 669.133555 482.366873 683.072822 482.366873L806.235507 482.366873C820.223513 482.366873 831.53089 493.771728 831.53089 507.759733L831.53089 515.704141C831.53089 529.740885 820.223513 541.097001 806.235507 541.097001ZM663.236173 390.933079C659.580771 394.003617 655.486721 395.465778 651.39267 395.465778 644.764208 395.465778 638.281961 391.615421 634.236649 384.499572L630.581247 377.968586C623.952784 366.417515 626.34098 350.577439 635.845026 342.633032L737.075297 257.340314C740.681961 254.269776 744.82475 252.807615 748.918801 252.807615 755.547263 252.807615 762.02951 256.657972 766.074822 263.773822L769.730224 270.304807C776.261209 281.855878 773.873013 297.647216 764.466445 305.591623L663.236173 390.933079ZM634.236649 639.45169C638.281961 632.33584 644.764208 628.485483 651.39267 628.485483 655.486721 628.485483 659.580771 629.947644 663.236173 632.969443L764.417706 718.262161C773.873013 726.255307 776.261209 742.046644 769.730224 753.646454L766.026083 760.128701C761.980771 767.24455 755.449786 771.094907 748.870062 771.094907 744.82475 771.094907 740.681961 769.632746 737.075297 766.610947L635.845026 681.318229C626.34098 673.276345 623.952784 657.533746 630.48377 645.982675L634.236649 639.45169ZM546.409519 770.510043C536.223132 770.510043 525.744312 765.39248 520.480533 761.542123 480.904712 732.347644 400.193432 686.289576 344.338886 645.300333L344.290148 645.251594 342.291861 642.181057C335.517182 638.379438 332.495383 627.803141 295.697668 627.754403L223.077011 627.754403C203.581533 627.754403 193.005236 618.104141 193.005236 598.511185L193.005236 424.465302C193.005236 404.872347 204.507568 396.245597 223.077011 396.245597L295.405236 396.245597C332.397906 396.245597 335.468444 385.620562 342.291861 381.818943L344.290148 378.748406 344.338886 378.699667C402.045502 337.612946 482.171918 294.917849 520.480533 264.504902 525.793051 260.264636 537.002951 254.367254 547.627987 254.367254 560.251309 254.367254 572.046073 262.750309 572.046073 292.334698L572.046073 731.470347C572.046073 762.02951 559.520228 770.510043 546.409519 770.510043Z" fill="#ffffff" p-id="11470"></path></svg>