<?xml version="1.0" standalone="no"?><!DOCTYPE svg PUBLIC "-//W3C//DTD SVG 1.1//EN" "http://www.w3.org/Graphics/SVG/1.1/DTD/svg11.dtd"><svg t="1500909624526" class="icon" style="" viewBox="0 0 1024 1024" version="1.1" xmlns="http://www.w3.org/2000/svg" p-id="2420" xmlns:xlink="http://www.w3.org/1999/xlink" width="32" height="32"><defs><style type="text/css"></style></defs><path d="M63.488986 484.178351c0-133.425825 0-266.557962 0-400.184355 136.176472 0 271.904737 0 408.437319 0 0 133.279493 0 266.38707 0 400.184355C335.936075 484.178351 199.966311 484.178351 63.488986 484.178351zM398.389476 156.534126c-87.442538 0-173.996846 0-260.398682 0 0 85.599563 0 170.495092 0 255.353782 87.154989 0 173.437098 0 260.398682 0C398.389476 326.644455 398.389476 241.98838 398.389476 156.534126z" p-id="2421" fill="#ffffff"></path><path d="M63.790862 558.77942c135.949298 0 271.671423 0 408.166143 0 0 133.414569 0 266.521123 0 400.258033-135.862317 0-271.609001 0-408.166143 0C63.790862 825.967738 63.790862 692.614567 63.790862 558.77942zM398.409942 631.425973c-87.4804 0-174.019359 0-260.440637 0 0 85.644589 0 170.549328 0 255.387551 87.161129 0 173.470867 0 260.440637 0C398.409942 801.63454 398.409942 716.975395 398.409942 631.425973z" p-id="2422" fill="#ffffff"></path><path d="M548.968983 484.370733c0-133.776819 0-266.681782 0-400.228357 136.402623 0 272.377504 0 408.816966 0 0 133.468804 0 266.600941 0 400.228357C821.562405 484.370733 685.841304 484.370733 548.968983 484.370733zM622.862947 156.360164c0 85.450161 0 170.370249 0 255.385505 87.401606 0 173.97331 0 260.416078 0 0-85.657892 0-170.58105 0-255.385505C796.063661 156.360164 709.7222 156.360164 622.862947 156.360164z" p-id="2423" fill="#ffffff"></path><path d="M622.034069 959.136713c-24.894993 0-48.627511 0-72.854285 0 0-133.629463 0-266.728854 0-400.283616 74.127278 0 147.614989 0 222.323505 0 0 4.276397 0 8.008394 0 11.741415 0.001023 53.260018 0.201591 106.522082-0.194428 159.77903-0.066515 8.928347 2.673899 11.2973 11.350512 11.158131 30.289863-0.48607 60.592007-0.174985 90.890057-0.208754 3.123131-0.00307 6.246261-0.294712 10.17678-0.493234 0-60.695361 0-120.836089 0-181.751461 24.876574 0 48.931432 0 73.77833 0 0 84.235496 0 168.805614 0 253.955946-86.123496 0-172.08838 0-259.601526 0 0-60.682058 0-121.005958 0-182.270277-24.737404 0-47.943942-0.092098-71.146387 0.205685-1.559519 0.020466-3.870144 2.75167-4.430916 4.637624-0.785899 2.64627-0.287549 5.682419-0.287549 8.55177-0.005117 100.779288-0.004093 201.558575-0.004093 302.337863C622.033046 950.547081 622.034069 954.596304 622.034069 959.136713z" p-id="2424" fill="#ffffff"></path><path d="M698.251961 958.889073c0-35.826973 0-71.112618 0-107.23635 36.609803 0 73.014944 0 110.080118 0 0 35.401278 0 70.928423 0 107.23635C772.205277 958.889073 735.804229 958.889073 698.251961 958.889073z" p-id="2425" fill="#ffffff"></path><path d="M957.732737 959.212438c-36.957727 0-73.163323 0-110.057605 0 0-35.95284 0-71.458495 0-107.681488 36.632315 0 73.064063 0 110.057605 0C957.732737 887.280152 957.732737 922.815483 957.732737 959.212438z" p-id="2426" fill="#ffffff"></path><path d="M212.646098 337.414753c0-35.9467 0-71.252811 0-107.209744 36.846186 0 73.331145 0 110.945835 0 0 11.089569 0.001023 21.552875 0 32.016181-0.00307 22.642696-0.068562 45.285393 0.035816 67.927065 0.023536 5.015224-0.50449 8.558933-7.013741 8.512884-33.481556-0.240477-66.965158-0.187265-100.447736-0.279363C215.265762 338.379731 214.366276 337.903893 212.646098 337.414753z" p-id="2427" fill="#ffffff"></path><path d="M212.837456 812.456003c0-35.601846 0-71.151503 0-107.904569 8.740058 0 16.944927-0.001023 25.149796 0 25.512047 0.00307 51.025117-0.004093 76.537164 0.019443 4.451382 0.004093 9.111518-0.682545 9.081843 6.355755-0.141216 33.458019-0.063445 66.917062-0.063445 101.529371C286.382473 812.456003 249.773693 812.456003 212.837456 812.456003z" p-id="2428" fill="#ffffff"></path><path d="M698.717565 230.148727c36.989449 0 73.184813 0 109.738333 0 0 36.131919 0 71.665203 0 108.466364-7.108908 0-13.70514 0.001023-20.302395 0-27.094078-0.00307-54.18918-0.049119-81.283258 0.029676-5.202489 0.01535-9.18929-0.112564-9.124821-7.338129 0.288572-32.19219 0.140193-64.387449 0.189312-96.581686C697.937806 233.487775 698.346105 232.250598 698.717565 230.148727z" p-id="2429" fill="#ffffff"></path></svg>