<?xml version="1.0" standalone="no"?><!DOCTYPE svg PUBLIC "-//W3C//DTD SVG 1.1//EN" "http://www.w3.org/Graphics/SVG/1.1/DTD/svg11.dtd"><svg t="1500909902976" class="icon" style="" viewBox="0 0 1024 1024" version="1.1" xmlns="http://www.w3.org/2000/svg" p-id="3417" xmlns:xlink="http://www.w3.org/1999/xlink" width="32" height="32"><defs><style type="text/css"></style></defs><path d="M987.386 549.682H37.14c-20.179 0-36.558-16.363-36.558-36.54 0-20.16 16.38-36.559 36.558-36.559h950.246c20.216 0 36.54 16.4 36.54 36.559 0.001 20.177-16.323 36.54-36.54 36.54zM877.77 988.265H676.274c-20.215 0-36.577-16.327-36.577-36.54 0-20.214 16.361-36.576 36.577-36.576H877.77c20.18 0 36.502-16.362 36.502-36.54V695.878c0-20.216 16.362-36.54 36.577-36.54 20.217 0 36.54 16.323 36.54 36.54V878.61c-0.003 60.462-49.193 109.654-109.62 109.654z m-522.79 0H146.779c-60.464 0-109.636-49.192-109.636-109.654V695.877c0-20.216 16.379-36.54 36.557-36.54 20.18 0 36.522 16.323 36.522 36.54V878.61c0 20.18 16.414 36.539 36.558 36.539H354.98c20.215 0 36.578 16.362 36.578 36.577-0.002 20.212-16.365 36.538-36.58 36.538zM73.7 366.946c-20.178 0-36.557-16.379-36.557-36.558V147.655c0-60.462 49.174-109.637 109.636-109.637H354.98c20.215 0 36.578 16.379 36.578 36.557 0 20.143-16.363 36.522-36.578 36.522H146.778c-20.143 0-36.558 16.416-36.558 36.558v182.733c0 20.18-16.344 36.558-36.521 36.558z m877.149 0c-20.215 0-36.577-16.379-36.577-36.558V147.655c0-20.142-16.323-36.558-36.502-36.558H676.274c-20.215 0-36.577-16.379-36.577-36.522 0-20.177 16.361-36.557 36.577-36.557H877.77c60.426 0 109.618 49.174 109.618 109.637v182.733c-0.002 20.18-16.323 36.558-36.54 36.558z" p-id="3418" fill="#ffffff"></path></svg>