<?xml version="1.0" standalone="no"?><!DOCTYPE svg PUBLIC "-//W3C//DTD SVG 1.1//EN" "http://www.w3.org/Graphics/SVG/1.1/DTD/svg11.dtd"><svg t="1505902506021" class="icon" style="" viewBox="0 0 1024 1024" version="1.1" xmlns="http://www.w3.org/2000/svg" p-id="2627" xmlns:xlink="http://www.w3.org/1999/xlink" width="64" height="64"><defs><style type="text/css"></style></defs><path d="M90.352941 313.223529H30.117647V135.529412C30.117647 78.305882 78.305882 30.117647 135.529412 30.117647h177.694117v60.235294H135.529412C111.435294 90.352941 90.352941 111.435294 90.352941 135.529412v177.694117zM993.882353 313.223529h-60.235294V135.529412c0-24.094118-21.082353-45.176471-45.176471-45.176471h-177.694117V30.117647h177.694117C945.694118 30.117647 993.882353 78.305882 993.882353 135.529412v177.694117zM313.223529 993.882353H135.529412C78.305882 993.882353 30.117647 945.694118 30.117647 888.470588v-177.694117h60.235294v177.694117c0 24.094118 21.082353 45.176471 45.176471 45.176471h177.694117v60.235294zM888.470588 993.882353h-177.694117v-60.235294h177.694117c24.094118 0 45.176471-21.082353 45.176471-45.176471v-177.694117h60.235294v177.694117c0 57.223529-48.188235 105.411765-105.411765 105.411765zM490.917647 442.729412l-150.588235-150.588236c-12.047059-12.047059-12.047059-30.117647 0-42.164705 12.047059-12.047059 30.117647-12.047059 42.164706 0l150.588235 150.588235c12.047059 12.047059 12.047059 30.117647 0 42.164706-12.047059 12.047059-30.117647 12.047059-42.164706 0z" fill="#ffffff" p-id="2628"></path><path d="M533.082353 442.729412l150.588235-150.588236c12.047059-12.047059 12.047059-30.117647 0-42.164705-12.047059-12.047059-30.117647-12.047059-42.164706 0l-150.588235 150.588235c-12.047059 12.047059-12.047059 30.117647 0 42.164706 12.047059 12.047059 30.117647 12.047059 42.164706 0z" fill="#ffffff" p-id="2629"></path><path d="M512 774.023529c-18.070588 0-30.117647-12.047059-30.117647-30.117647V418.635294c0-18.070588 12.047059-30.117647 30.117647-30.117647s30.117647 12.047059 30.117647 30.117647v325.270588c0 15.058824-12.047059 30.117647-30.117647 30.117647z" fill="#ffffff" p-id="2630"></path><path d="M725.835294 436.705882c0 18.070588-12.047059 30.117647-30.117647 30.117647H328.282353c-18.070588 0-30.117647-12.047059-30.117647-30.117647s12.047059-30.117647 30.117647-30.117647H692.705882c18.070588 0 33.129412 15.058824 33.129412 30.117647zM725.835294 581.270588c0 18.070588-12.047059 30.117647-30.117647 30.117647H328.282353c-18.070588 0-30.117647-12.047059-30.117647-30.117647s12.047059-30.117647 30.117647-30.117647H692.705882c18.070588 0 33.129412 15.058824 33.129412 30.117647z" fill="#ffffff" p-id="2631"></path></svg>