<?xml version="1.0" standalone="no"?><!DOCTYPE svg PUBLIC "-//W3C//DTD SVG 1.1//EN" "http://www.w3.org/Graphics/SVG/1.1/DTD/svg11.dtd"><svg t="1500910318874" class="icon" style="" viewBox="0 0 1024 1024" version="1.1" xmlns="http://www.w3.org/2000/svg" p-id="7534" xmlns:xlink="http://www.w3.org/1999/xlink" width="48" height="48"><defs><style type="text/css"></style></defs><path d="M512 0C230.4 0 0 230.4 0 512 0 793.6 230.4 1024 512 1024c281.6 0 512-230.399 512-512C1024 230.4 793.6 0 512 0zM512 960C262.4 960 64 761.6 64 512 64 262.4 262.4 64 512 64c249.6 0 448 198.4 448 448C960 761.6 761.6 960 512 960zM512 160C390.4 160 288 262.4 288 384 288 505.6 390.4 608 512 608c121.6 0 224-102.399 224-224C736 262.4 633.6 160 512 160zM512 544C422.4 544 352 473.6 352 384c0-89.6 70.399-160 160-160 89.6 0 160 70.4 160 160C672 473.6 601.6 544 512 544zM204.8 851.2C236.8 710.4 364.8 608 512 608c147.199 0 275.199 102.4 307.199 243.2l64 0C844.8 678.4 691.199 544 505.6 544S166.4 672 128 851.2L204.8 851.2z" p-id="7535" fill="#ffffff"></path></svg>