<?xml version="1.0" standalone="no"?><!DOCTYPE svg PUBLIC "-//W3C//DTD SVG 1.1//EN" "http://www.w3.org/Graphics/SVG/1.1/DTD/svg11.dtd"><svg t="1505902185165" class="icon" style="" viewBox="0 0 1024 1024" version="1.1" xmlns="http://www.w3.org/2000/svg" p-id="2450" xmlns:xlink="http://www.w3.org/1999/xlink" width="64" height="64"><defs><style type="text/css"></style></defs><path d="M512.0468703125 32C246.8540178125 32 32 246.66653656250003 32 511.3906840625c0 264.8178890625 214.8540178125 479.3906840625 480.04687031249995 479.39068499999996 265.099111875 0 480.04687031249995-214.6665365625 480.04687031249995-479.39068499999996C992 246.66653656250003 777.1459821875 32 512.0468703125 32z m-87.0852459375 592.3484034375c-25.8724734375 0-46.6829409375-5.2494871875-72.649155-10.405233749999999l-72.555414375 36.2777071875 20.716726875-62.33766281249999c-51.932428125-36.2777071875-83.05438968749999-83.05438968749999-83.05438968749999-139.8613415625 0-98.61537 93.365881875-176.23278937499998 207.4484915625-176.23278937499998 101.99004000000001 0 191.325065625 62.056439999999995 209.32330875 145.4857921875-6.6556003125-0.749926875-13.3111996875-1.2186309375-20.0605415625-1.2186309375-98.42788781249999 0-176.13904875 73.49282249999999-176.23278937499998 164.04648 0 15.092276249999998 2.3435212500000002 29.622106875 6.3743775000000005 43.495752187499996-6.280636875 0.46870406249999996-12.748755000000001 0.749926875-19.3106146875 0.749926875z m305.9701209375 72.555414375l15.560980312500002 51.744946875-56.9006934375-31.215701250000002c-20.810467499999998 5.1557465625-41.620934999999996 10.405233749999999-62.24392125000001 10.405233749999999-98.709110625 0-176.4202715625-67.3059271875-176.4202715625-150.36031687500002 0-82.773166875 77.7111609375-150.3603159375 176.4202715625-150.3603159375 93.27214125 0 176.23278937499998 67.49340843750001 176.23278937499998 150.3603159375 0 46.870423124999995-31.028219999999997 88.2101353125-72.649155 119.4258375z m0 0" fill="#45C45D" p-id="2451"></path><path d="M502.766526875 411.7441653125c15.654720937499999 0 25.9662140625-10.405233749999999 25.9662140625-25.8724734375 0-15.560980312500002-10.311493125-25.8724734375-25.9662140625-25.8724734375-15.560980312500002 0-31.121960625000003 10.217752500000001-31.121960625000003 25.8724734375 0 15.4672396875 15.560980312500002 25.8724734375 31.121960625000003 25.8724734375z m-145.20457031249998-51.838687500000006c-15.560980312500002 0-31.215701250000002 10.311493125-31.215701250000002 25.8724734375s15.654720937499999 25.8724734375 31.215701250000002 25.8724734375c15.560980312500002 0 25.8724734375-10.405233749999999 25.8724734375-25.8724734375 0-15.560980312500002-10.311493125-25.8724734375-25.8724734375-25.8724734375z m212.604238125 150.36031687500002c-10.217752500000001 0-20.716726875 10.405233749999999-20.716726875 20.716726875 0 10.498974375 10.498974375 20.716726875 20.716726875 20.716726875 15.748462499999999 0 25.9662140625-10.217752500000001 25.9662140625-20.716726875 0-10.311493125-10.217752500000001-20.716726875-25.9662140625-20.716726875z m114.08260874999999 0c-10.217752500000001 0-20.62298625 10.405233749999999-20.6229853125 20.716726875 0 10.498974375 10.405233749999999 20.716726875 20.6229853125 20.716726875 15.560980312500002 0 25.9662140625-10.217752500000001 25.966215000000002-20.716726875 0-10.311493125-10.311493125-20.716726875-25.966215000000002-20.716726875z m0 0" fill="#51C332" p-id="2452"></path></svg>